<svg id="Layer_1" data-name="Layer 1" xmlns="http://www.w3.org/2000/svg" viewBox="0 0 1260 543.32"><defs><style>.cls-1{fill:#c42323;}.cls-2,.cls-3{fill:#191919;}.cls-3{font-size:280.22px;font-family:Swiss921BT-RegularA, Swiss921 BT;}</style></defs><title>logo</title><rect class="cls-1" width="1260" height="515.04" rx="29.7"/><path class="cls-2" d="M1059.75,82.26s-.36-9-4.22-15.16A57,57,0,0,0,1047,56.61s-340.71,74.15-367,81.07-33,21.62-33,21.62l-62.36,68.46a36.66,36.66,0,0,0-30.59-2c-.48.18-.92.41-1.39.61-.65.21-1.29.41-1.94.65a40.58,40.58,0,0,0-25.16,28.72c-14.75,3.39-35.73,8.17-52.06,11.7-28.17,6.1-58.33,19-58.33,19S123,412.32,90.67,427.61s-19.45,21.08-19.45,21.08.36,9,4.21,15.16A57,57,0,0,0,84,474.33s340.71-74.14,367-81.06,33-21.63,33-21.63l63.75-70a40.53,40.53,0,0,0,56.55-26.18c14.79-3.41,36.45-8.35,53.21-12,28.17-6.09,58.32-19,58.32-19S1008,118.62,1040.3,103.34,1059.75,82.26,1059.75,82.26Z" transform="translate(-2 -1.52)"/><text class="cls-3" transform="translate(553.18 477.24)">Drone</text><text class="cls-3" transform="translate(28.95 256.51)">Elgin</text></svg>